<?xml version="1.0" encoding="iso-8859-1"?>
<!-- Generator: Adobe Illustrator 19.0.0, SVG Export Plug-In . SVG Version: 6.00 Build 0)  -->
<svg version="1.1" id="Layer_1" xmlns="http://www.w3.org/2000/svg" xmlns:xlink="http://www.w3.org/1999/xlink" x="0px" y="0px"
	 viewBox="0 0 512 512" style="enable-background:new 0 0 512 512;" xml:space="preserve">
<polygon style="fill:#E0C46A;" points="414.305,97.696 414.305,502.949 97.695,502.949 97.695,97.696 312.082,97.696 "/>
<polygon style="fill:#C4AB63;" points="312.082,97.684 312.082,97.696 97.695,97.696 97.695,97.684 312.082,9.042 "/>
<path style="fill:#F97177;" d="M256.003,262.102c0-30.075,20.708-54.457,46.252-54.457c31.93,0,57.815,30.477,57.815,68.071
	c0,46.993-55.688,92.935-104.067,117.668c-48.379-24.733-104.067-70.675-104.067-117.668c0-37.594,25.885-68.071,57.815-68.071
	C235.295,207.646,256.003,232.028,256.003,262.102z"/>
<path d="M414.305,88.655H143.221l159.815-66.078v47.998c0,4.996,4.05,9.046,9.046,9.046s9.046-4.05,9.046-9.046V9.047
	c0-3.02-1.508-5.842-4.018-7.521c-2.512-1.679-5.696-1.994-8.486-0.84L94.239,89.329c-0.029,0.012-0.052,0.031-0.08,0.045
	c-3.239,1.376-5.51,4.587-5.51,8.329v47.656c0,4.996,4.05,9.046,9.046,9.046s9.046-4.05,9.046-9.046v-38.611H405.26v387.16H106.741
	V177.924c0-4.996-4.05-9.046-9.046-9.046s-9.046,4.05-9.046,9.046v325.03c0,4.996,4.05,9.046,9.046,9.046h316.611
	c4.996,0,9.046-4.05,9.046-9.046V97.701C423.352,92.705,419.302,88.655,414.305,88.655z"/>
<path d="M142.889,275.721c0,51.668,58.716,100.018,108.995,125.723c1.293,0.661,2.705,0.991,4.118,0.991
	c1.412,0,2.825-0.33,4.118-0.991c20.12-10.286,39.446-23.024,55.888-36.837c3.825-3.214,4.322-8.92,1.107-12.746
	c-3.214-3.826-8.92-4.322-12.746-1.107c-14.292,12.006-30.936,23.161-48.369,32.433c-47.96-25.507-95.021-67.89-95.021-107.466
	c0-32.545,21.878-59.025,48.768-59.025c20.516,0,37.206,20.371,37.206,45.409c0,4.996,4.05,9.046,9.046,9.046
	c4.996,0,9.046-4.05,9.046-9.046c0-25.039,16.69-45.409,37.206-45.409c26.891,0,48.768,26.478,48.768,59.025
	c0,17.681-9.621,37.454-27.822,57.18c-3.388,3.672-3.158,9.395,0.514,12.783c3.67,3.388,9.395,3.157,12.783-0.514
	c21.644-23.457,32.618-46.823,32.618-69.45c0-42.522-29.994-77.117-66.861-77.117c-19.322,0-36.362,11.439-46.252,28.73
	c-9.891-17.289-26.93-28.73-46.252-28.73C172.882,198.604,142.889,233.2,142.889,275.721z"/>
<path d="M325.656,157.4c4.996,0,9.046-4.05,9.046-9.046s-4.05-9.046-9.046-9.046H186.348c-4.996,0-9.046,4.05-9.046,9.046
	s4.05,9.046,9.046,9.046H325.656z"/>
<path d="M230.676,441.039c-4.996,0-9.046,4.05-9.046,9.046s4.05,9.046,9.046,9.046h94.98c4.996,0,9.046-4.05,9.046-9.046
	s-4.05-9.046-9.046-9.046H230.676z"/>
<path d="M186.348,441.039c-4.996,0-9.046,4.05-9.046,9.046s4.05,9.046,9.046,9.046h18.997c4.996,0,9.046-4.05,9.046-9.046
	s-4.05-9.046-9.046-9.046H186.348z"/>
<g>
</g>
<g>
</g>
<g>
</g>
<g>
</g>
<g>
</g>
<g>
</g>
<g>
</g>
<g>
</g>
<g>
</g>
<g>
</g>
<g>
</g>
<g>
</g>
<g>
</g>
<g>
</g>
<g>
</g>
</svg>
